<?xml version="1.0" encoding="UTF-8" standalone="no"?>
<svg xmlns="http://www.w3.org/2000/svg"
     xmlns:xlink="http://www.w3.org/1999/xlink"
     width="576px" height="432px" viewBox="0 0 576 432">
<title>gl2ps_renderer figure</title>
<desc>
Creator: GL2PS 1.3.8, (C) 1999-2012 C. Geuzaine
For: Octave
CreationDate: Sun Apr  1 18:12:04 2018
</desc>
<defs>
</defs>
<polygon fill="#ffffff" points="0,0 576,0 576,432 0,432"/>
<g shape-rendering="crispEdges">
<polygon fill="#ffffff" points="0,432 576,432 576,0 0,0"/>
<clipPath id="cp00576432">
  <polygon points="0,432 576,432 576,0 0,0"/>
</clipPath>
<g clip-path="url(#cp00576432)">
<polygon fill="#ffffff" points="74.8799,384.48 521.28,384.48 74.8799,32.4"/>
<polygon fill="#ffffff" points="521.28,384.48 521.28,32.4 74.8799,32.4"/>
<polyline fill="none" stroke="#262626" stroke-width="0.5" points="74.8799,384.48 74.8799,380.015"/>
<polyline fill="none" stroke="#262626" stroke-width="0.5" points="74.8799,32.4 74.8799,36.8651"/>
<polyline fill="none" stroke="#262626" stroke-width="0.5" points="138.651,384.48 138.651,380.015"/>
<polyline fill="none" stroke="#262626" stroke-width="0.5" points="138.651,32.4 138.651,36.8651"/>
<polyline fill="none" stroke="#262626" stroke-width="0.5" points="202.423,384.48 202.423,380.015"/>
<polyline fill="none" stroke="#262626" stroke-width="0.5" points="202.423,32.4 202.423,36.8651"/>
<polyline fill="none" stroke="#262626" stroke-width="0.5" points="266.194,384.48 266.194,380.015"/>
<polyline fill="none" stroke="#262626" stroke-width="0.5" points="266.194,32.4 266.194,36.8651"/>
<polyline fill="none" stroke="#262626" stroke-width="0.5" points="329.966,384.48 329.966,380.015"/>
<polyline fill="none" stroke="#262626" stroke-width="0.5" points="329.966,32.4 329.966,36.8651"/>
<polyline fill="none" stroke="#262626" stroke-width="0.5" points="393.737,384.48 393.737,380.015"/>
<polyline fill="none" stroke="#262626" stroke-width="0.5" points="393.737,32.4 393.737,36.8651"/>
<polyline fill="none" stroke="#262626" stroke-width="0.5" points="457.508,384.48 457.508,380.015"/>
<polyline fill="none" stroke="#262626" stroke-width="0.5" points="457.508,32.4 457.508,36.8651"/>
<polyline fill="none" stroke="#262626" stroke-width="0.5" points="521.28,384.48 521.28,380.015"/>
<polyline fill="none" stroke="#262626" stroke-width="0.5" points="521.28,32.4 521.28,36.8651"/>
<text fill="#262626" x="74.8799" y="389.481" font-size="10" text-anchor="middle" baseline-shift="-10" font-family="Helvetica">4000</text>
<text fill="#262626" x="138.651" y="389.481" font-size="10" text-anchor="middle" baseline-shift="-10" font-family="Helvetica">4500</text>
<text fill="#262626" x="202.423" y="389.481" font-size="10" text-anchor="middle" baseline-shift="-10" font-family="Helvetica">5000</text>
<text fill="#262626" x="266.194" y="389.481" font-size="10" text-anchor="middle" baseline-shift="-10" font-family="Helvetica">5500</text>
<text fill="#262626" x="329.966" y="389.481" font-size="10" text-anchor="middle" baseline-shift="-10" font-family="Helvetica">6000</text>
<text fill="#262626" x="393.737" y="389.481" font-size="10" text-anchor="middle" baseline-shift="-10" font-family="Helvetica">6500</text>
<text fill="#262626" x="457.509" y="389.481" font-size="10" text-anchor="middle" baseline-shift="-10" font-family="Helvetica">7000</text>
<text fill="#262626" x="521.28" y="389.481" font-size="10" text-anchor="middle" baseline-shift="-10" font-family="Helvetica">7500</text>
<polyline fill="none" stroke="#262626" stroke-width="0.5" points="74.8799,384.48 79.3479,384.48"/>
<polyline fill="none" stroke="#262626" stroke-width="0.5" points="521.28,384.48 516.812,384.48"/>
<polyline fill="none" stroke="#262626" stroke-width="0.5" points="74.8799,314.064 79.3479,314.064"/>
<polyline fill="none" stroke="#262626" stroke-width="0.5" points="521.28,314.064 516.812,314.064"/>
<polyline fill="none" stroke="#262626" stroke-width="0.5" points="74.8799,243.648 79.3479,243.648"/>
<polyline fill="none" stroke="#262626" stroke-width="0.5" points="521.28,243.648 516.812,243.648"/>
<polyline fill="none" stroke="#262626" stroke-width="0.5" points="74.8799,173.232 79.3479,173.232"/>
<polyline fill="none" stroke="#262626" stroke-width="0.5" points="521.28,173.232 516.812,173.232"/>
<polyline fill="none" stroke="#262626" stroke-width="0.5" points="74.8799,102.816 79.3479,102.816"/>
<polyline fill="none" stroke="#262626" stroke-width="0.5" points="521.28,102.816 516.812,102.816"/>
<polyline fill="none" stroke="#262626" stroke-width="0.5" points="74.8799,32.4 79.3479,32.4"/>
<polyline fill="none" stroke="#262626" stroke-width="0.5" points="521.28,32.4 516.812,32.4"/>
<text fill="#262626" x="69.8755" y="384.48" font-size="10" text-anchor="end" baseline-shift="-5" font-family="Helvetica">0</text>
<text fill="#262626" x="69.8755" y="314.064" font-size="10" text-anchor="end" baseline-shift="-5" font-family="Helvetica">1e+07</text>
<text fill="#262626" x="69.8755" y="243.648" font-size="10" text-anchor="end" baseline-shift="-5" font-family="Helvetica">2e+07</text>
<text fill="#262626" x="69.8755" y="173.232" font-size="10" text-anchor="end" baseline-shift="-5" font-family="Helvetica">3e+07</text>
<text fill="#262626" x="69.8755" y="102.816" font-size="10" text-anchor="end" baseline-shift="-5" font-family="Helvetica">4e+07</text>
<text fill="#262626" x="69.8755" y="32.4" font-size="10" text-anchor="end" baseline-shift="-5" font-family="Helvetica">5e+07</text>
<polyline fill="none" stroke="#262626" stroke-width="0.5" stroke-dasharray="16,0" points="74.8799,384.48 521.28,384.48"/>
<polyline fill="none" stroke="#262626" stroke-width="0.5" stroke-dasharray="16,0" points="74.8799,32.4 521.28,32.4"/>
<polyline fill="none" stroke="#262626" stroke-width="0.5" stroke-dasharray="16,0" points="74.8799,384.48 74.8799,32.4"/>
<polyline fill="none" stroke="#262626" stroke-width="0.5" stroke-dasharray="16,0" points="521.28,384.48 521.28,32.4"/>
<text fill="#262626" x="298.08" y="402.481" font-size="11" text-anchor="middle" baseline-shift="-11" font-family="Helvetica">λ [Å]</text>
<text fill="#262626" x="31.8755" y="256.44" font-size="11" transform="rotate(-90, 31.8755, 256.44)" text-anchor="start" baseline-shift="0" font-family="Helvetica">Radiancia [W/m</text>
<text fill="#262626" x="24.8755" y="170.44" font-size="9" transform="rotate(-90, 24.8755, 170.44)" text-anchor="start" baseline-shift="0" font-family="Helvetica">3</text>
<text fill="#262626" x="31.8755" y="164.44" font-size="11" transform="rotate(-90, 31.8755, 164.44)" text-anchor="start" baseline-shift="0" font-family="Helvetica">]</text>
<polyline fill="none" stroke="#0000ff" stroke-width="2" stroke-dasharray="2,2,2,2,2,2,2,2,2,2" points="74.8799,384.48 76.1553,384.48 77.4308,384.48 78.7062,384.48 79.9816,384.48 81.257,384.48 82.5325,384.48 83.8079,384.48 85.0833,384.48 86.3587,384.48 87.6342,384.48 88.9096,384.48 90.1851,384.48 91.4605,384.48 92.7359,384.48 94.0114,384.48 95.2868,384.48 96.5622,384.48 97.8376,384.48 99.1131,384.48 100.388,384.48 101.664,384.48 102.939,384.48 104.215,384.48 105.49,384.48 106.766,384.48 108.041,384.48 109.316,384.48 110.592,384.48 111.867,384.48 113.143,384.48 114.418,384.48 115.694,384.48 116.969,384.48 118.244,384.48 119.52,384.48 120.795,384.48 122.071,384.48 123.346,384.48 124.622,384.48 125.897,384.48 127.172,384.48 128.448,384.48 129.723,384.48 130.999,384.48 132.274,384.48 133.55,384.48 134.825,384.48 136.1,384.48 137.376,384.48 138.651,384.48 139.927,384.48 141.202,384.48 142.478,384.48 143.753,384.48 145.028,384.48 146.304,384.48 147.579,384.48 148.855,384.48 150.13,384.48 151.406,384.48 152.681,384.48 153.956,384.48 155.232,384.48 156.507,384.48 157.783,384.48 159.058,384.48 160.334,384.48 161.609,384.48 162.884,384.48 164.16,384.48 165.435,384.48 166.711,384.48 167.986,384.48 169.262,384.48 170.537,384.48 171.812,384.48 173.088,384.48 174.363,384.48 175.639,384.48 176.914,384.48 178.19,384.48 179.465,384.48 180.74,384.48 182.016,384.48 183.291,384.48 184.567,384.48 185.842,384.48 187.118,384.48 188.393,384.48 189.668,384.48 190.944,384.48 192.219,384.48 193.495,384.48 194.77,384.48 196.046,384.48 197.321,384.48 198.596,384.48 199.872,384.48 201.147,384.48 202.423,384.48 203.698,384.48 204.974,384.48 206.249,384.48 207.524,384.48 208.8,384.48 210.075,384.48 211.351,384.48 212.626,384.48 213.902,384.48 215.177,384.48 216.452,384.48 217.728,384.48 219.003,384.48 220.279,384.48 221.554,384.48 222.83,384.48 224.105,384.48 225.38,384.48 226.656,384.48 227.931,384.48 229.207,384.48 230.482,384.48 231.758,384.48 233.033,384.48 234.308,384.48 235.584,384.48 236.859,384.48 238.135,384.48 239.41,384.48 240.686,384.48 241.961,384.48 243.236,384.48 244.512,384.48 245.787,384.48 247.063,384.48 248.338,384.48 249.614,384.48 250.889,384.48 252.164,384.48 253.44,384.48 254.715,384.48 255.991,384.48 257.266,384.48 258.542,384.48 259.817,384.48 261.092,384.48 262.368,384.48 263.643,384.48 264.919,384.48 266.194,384.48 267.47,384.48 268.745,384.48 270.02,384.48 271.296,384.48 272.571,384.48 273.847,384.48 275.122,384.48 276.398,384.48 277.673,384.48 278.948,384.48 280.224,384.48 281.499,384.48 282.775,384.48 284.05,384.48 285.326,384.48 286.601,384.48 287.876,384.48 289.152,384.48 290.427,384.48 291.703,384.48 292.978,384.48 294.254,384.48 295.529,384.48 296.804,384.48 298.08,384.48 299.355,384.48 300.631,384.48 301.906,384.48 303.182,384.48 304.457,384.48 305.732,384.48 307.008,384.48 308.283,384.48 309.559,384.48 310.834,384.48 312.11,384.48 313.385,384.48 314.66,384.48 315.936,384.48 317.211,384.48 318.487,384.48 319.762,384.48 321.038,384.48 322.313,384.48 323.589,384.48 324.864,384.48 326.139,384.48 327.415,384.48 328.69,384.48 329.966,384.48 331.241,384.48 332.516,384.48 333.792,384.48 335.067,384.48 336.343,384.48 337.618,384.48 338.894,384.48 340.169,384.48 341.444,384.48 342.72,384.48 343.995,384.48 345.271,384.48 346.546,384.48 347.822,384.48 349.097,384.48 350.372,384.48 351.648,384.48 352.923,384.48 354.199,384.48 355.474,384.48 356.75,384.48 358.025,384.48 359.3,384.48 360.576,384.48 361.851,384.48 363.127,384.48 364.402,384.48 365.678,384.48 366.953,384.48 368.228,384.48 369.504,384.48 370.779,384.48 372.055,384.48 373.33,384.48 374.606,384.48 375.881,384.48 377.156,384.48 378.432,384.48 379.707,384.48 380.983,384.48 382.258,384.48 383.534,384.48 384.809,384.48 386.085,384.48 387.36,384.48 388.635,384.48 389.911,384.48 391.186,384.48 392.462,384.48 393.737,384.48 395.012,384.48 396.288,384.48 397.563,384.48 398.839,384.48 400.114,384.48 401.39,384.48 402.665,384.48 403.94,384.48 405.216,384.48 406.491,384.48 407.767,384.48 409.042,384.48 410.318,384.48 411.593,384.48 412.868,384.48 414.144,384.48 415.419,384.48 416.695,384.48 417.97,384.48 419.246,384.48 420.521,384.48 421.796,384.48 423.072,384.48 424.347,384.48 425.623,384.48 426.898,384.48 428.174,384.48 429.449,384.48 430.724,384.48 432,384.48 433.275,384.48 434.551,384.48 435.826,384.48 437.102,384.48 438.377,384.479 439.652,384.479 440.928,384.479 442.203,384.479 443.479,384.479 444.754,384.479 446.03,384.479 447.305,384.479 448.58,384.479 449.856,384.479 451.131,384.479 452.407,384.479 453.682,384.479 454.958,384.479 456.233,384.479 457.508,384.479 458.784,384.479 460.059,384.479 461.335,384.479 462.61,384.479 463.886,384.479 465.161,384.479 466.436,384.479 467.712,384.479 468.987,384.479 470.263,384.479 471.538,384.479 472.814,384.479 474.089,384.479 475.364,384.479 476.64,384.479 477.915,384.478 479.191,384.478 480.466,384.478 481.742,384.478 483.017,384.478 484.292,384.478 485.568,384.478 486.843,384.478 488.119,384.478 489.394,384.478 490.67,384.478 491.945,384.478 493.22,384.478 494.496,384.478 495.771,384.478 497.047,384.477 498.322,384.477 499.598,384.477 500.873,384.477 502.148,384.477 503.424,384.477 504.699,384.477 505.975,384.477 507.25,384.477 508.526,384.477 509.801,384.476 511.076,384.476 512.352,384.476 513.627,384.476 514.903,384.476 516.178,384.476 517.454,384.476 518.729,384.476 520.004,384.475 521.28,384.475"/>
<polyline fill="none" stroke="#ff00ff" stroke-width="2" stroke-dasharray="8,8,8,8" points="74.8799,384.479 76.1553,384.479 77.4308,384.479 78.7062,384.479 79.9816,384.479 81.257,384.479 82.5325,384.479 83.8079,384.479 85.0833,384.479 86.3587,384.479 87.6342,384.479 88.9096,384.478 90.1851,384.478 91.4605,384.478 92.7359,384.478 94.0114,384.478 95.2868,384.478 96.5622,384.478 97.8376,384.478 99.1131,384.477 100.388,384.477 101.664,384.477 102.939,384.477 104.215,384.477 105.49,384.476 106.766,384.476 108.041,384.476 109.316,384.476 110.592,384.475 111.867,384.475 113.143,384.475 114.418,384.474 115.694,384.474 116.969,384.474 118.244,384.473 119.52,384.473 120.795,384.473 122.071,384.472 123.346,384.472 124.622,384.471 125.897,384.471 127.172,384.47 128.448,384.469 129.723,384.469 130.999,384.468 132.274,384.467 133.55,384.467 134.825,384.466 136.1,384.465 137.376,384.464 138.651,384.463 139.927,384.462 141.202,384.461 142.478,384.46 143.753,384.459 145.028,384.458 146.304,384.457 147.579,384.456 148.855,384.454 150.13,384.453 151.406,384.451 152.681,384.45 153.956,384.448 155.232,384.447 156.507,384.445 157.783,384.443 159.058,384.441 160.334,384.439 161.609,384.437 162.884,384.435 164.16,384.432 165.435,384.43 166.711,384.427 167.986,384.425 169.262,384.422 170.537,384.419 171.812,384.416 173.088,384.413 174.363,384.409 175.639,384.406 176.914,384.402 178.19,384.398 179.465,384.395 180.74,384.39 182.016,384.386 183.291,384.382 184.567,384.377 185.842,384.372 187.118,384.367 188.393,384.362 189.668,384.356 190.944,384.35 192.219,384.344 193.495,384.338 194.77,384.332 196.046,384.325 197.321,384.318 198.596,384.31 199.872,384.303 201.147,384.295 202.423,384.286 203.698,384.278 204.974,384.269 206.249,384.26 207.524,384.25 208.8,384.24 210.075,384.229 211.351,384.219 212.626,384.207 213.902,384.196 215.177,384.184 216.452,384.171 217.728,384.158 219.003,384.144 220.279,384.13 221.554,384.116 222.83,384.1 224.105,384.085 225.38,384.068 226.656,384.052 227.931,384.034 229.207,384.016 230.482,383.997 231.758,383.978 233.033,383.958 234.308,383.937 235.584,383.915 236.859,383.893 238.135,383.87 239.41,383.846 240.686,383.821 241.961,383.795 243.236,383.769 244.512,383.741 245.787,383.713 247.063,383.683 248.338,383.653 249.614,383.622 250.889,383.589 252.164,383.556 253.44,383.521 254.715,383.485 255.991,383.448 257.266,383.41 258.542,383.371 259.817,383.33 261.092,383.288 262.368,383.245 263.643,383.2 264.919,383.154 266.194,383.106 267.47,383.057 268.745,383.007 270.02,382.954 271.296,382.9 272.571,382.845 273.847,382.788 275.122,382.729 276.398,382.668 277.673,382.605 278.948,382.54 280.224,382.474 281.499,382.405 282.775,382.335 284.05,382.262 285.326,382.187 286.601,382.11 287.876,382.031 289.152,381.949 290.427,381.865 291.703,381.779 292.978,381.69 294.254,381.598 295.529,381.504 296.804,381.407 298.08,381.307 299.355,381.205 300.631,381.1 301.906,380.992 303.182,380.88 304.457,380.766 305.732,380.648 307.008,380.528 308.283,380.404 309.559,380.276 310.834,380.145 312.11,380.011 313.385,379.873 314.66,379.731 315.936,379.585 317.211,379.436 318.487,379.282 319.762,379.125 321.038,378.963 322.313,378.798 323.589,378.627 324.864,378.453 326.139,378.274 327.415,378.09 328.69,377.902 329.966,377.708 331.241,377.51 332.516,377.307 333.792,377.099 335.067,376.886 336.343,376.667 337.618,376.443 338.894,376.213 340.169,375.978 341.444,375.736 342.72,375.489 343.995,375.236 345.271,374.977 346.546,374.711 347.822,374.44 349.097,374.161 350.372,373.876 351.648,373.584 352.923,373.286 354.199,372.98 355.474,372.667 356.75,372.347 358.025,372.019 359.3,371.684 360.576,371.341 361.851,370.99 363.127,370.631 364.402,370.264 365.678,369.889 366.953,369.505 368.228,369.113 369.504,368.711 370.779,368.301 372.055,367.882 373.33,367.453 374.606,367.015 375.881,366.567 377.156,366.11 378.432,365.643 379.707,365.165 380.983,364.677 382.258,364.179 383.534,363.669 384.809,363.15 386.085,362.619 387.36,362.076 388.635,361.523 389.911,360.957 391.186,360.38 392.462,359.791 393.737,359.19 395.012,358.576 396.288,357.949 397.563,357.31 398.839,356.658 400.114,355.992 401.39,355.313 402.665,354.62 403.94,353.914 405.216,353.193 406.491,352.458 407.767,351.708 409.042,350.943 410.318,350.164 411.593,349.369 412.868,348.558 414.144,347.732 415.419,346.89 416.695,346.031 417.97,345.156 419.246,344.264 420.521,343.355 421.796,342.429 423.072,341.485 424.347,340.524 425.623,339.544 426.898,338.546 428.174,337.53 429.449,336.494 430.724,335.44 432,334.366 433.275,333.272 434.551,332.159 435.826,331.025 437.102,329.87 438.377,328.695 439.652,327.498 440.928,326.28 442.203,325.041 443.479,323.779 444.754,322.495 446.03,321.188 447.305,319.858 448.58,318.505 449.856,317.129 451.131,315.728 452.407,314.303 453.682,312.854 454.958,311.38 456.233,309.88 457.508,308.355 458.784,306.804 460.059,305.227 461.335,303.623 462.61,301.992 463.886,300.334 465.161,298.648 466.436,296.935 467.712,295.193 468.987,293.422 470.263,291.622 471.538,289.793 472.814,287.934 474.089,286.045 475.364,284.126 476.64,282.175 477.915,280.193 479.191,278.18 480.466,276.134 481.742,274.057 483.017,271.946 484.292,269.802 485.568,267.624 486.843,265.413 488.119,263.167 489.394,260.886 490.67,258.57 491.945,256.218 493.22,253.83 494.496,251.406 495.771,248.945 497.047,246.446 498.322,243.91 499.598,241.336 500.873,238.723 502.148,236.071 503.424,233.38 504.699,230.648 505.975,227.877 507.25,225.065 508.526,222.211 509.801,219.316 511.076,216.379 512.352,213.399 513.627,210.376 514.903,207.309 516.178,204.199 517.454,201.044 518.729,197.845 520.004,194.6 521.28,191.309"/>
<polyline fill="none" stroke="#ff0000" stroke-width="2" points="74.8799,377.988 76.1553,377.667 77.4308,377.331 78.7062,376.981 79.9816,376.615 81.257,376.235 82.5325,375.838 83.8079,375.424 85.0833,374.993 86.3587,374.543 87.6342,374.076 88.9096,373.589 90.1851,373.082 91.4605,372.554 92.7359,372.005 94.0114,371.434 95.2868,370.841 96.5622,370.223 97.8376,369.582 99.1131,368.915 100.388,368.222 101.664,367.503 102.939,366.755 104.215,365.979 105.49,365.174 106.766,364.338 108.041,363.47 109.316,362.571 110.592,361.637 111.867,360.67 113.143,359.666 114.418,358.626 115.694,357.549 116.969,356.432 118.244,355.276 119.52,354.078 120.795,352.838 122.071,351.554 123.346,350.225 124.622,348.85 125.897,347.427 127.172,345.955 128.448,344.433 129.723,342.859 130.999,341.232 132.274,339.55 133.55,337.811 134.825,336.015 136.1,334.16 137.376,332.243 138.651,330.264 139.927,328.221 141.202,326.112 142.478,323.935 143.753,321.688 145.028,319.37 146.304,316.978 147.579,314.512 148.855,311.969 150.13,309.346 151.406,306.643 152.681,303.857 153.956,300.985 155.232,298.027 156.507,294.979 157.783,291.839 159.058,288.606 160.334,285.277 161.609,281.849 162.884,278.321 164.16,274.69 165.435,270.954 166.711,267.11 167.986,263.155 169.262,259.087 170.537,254.904 171.812,250.603 173.088,246.181 174.363,241.635 175.639,236.964 176.914,232.163 178.19,227.23 179.465,222.163 180.74,216.957 182.016,211.611 183.291,206.122 184.567,200.486 185.842,194.699 187.118,188.76 188.393,182.665 189.668,176.41 190.944,169.992 192.219,163.409 193.495,156.656 194.77,149.73 196.046,142.627 197.321,135.345 198.596,127.88 199.872,120.227 201.147,112.384 202.423,104.346 203.698,96.1101 204.974,87.6722 206.249,79.0286 207.524,70.1752 208.8,61.1082 210.075,51.8235 211.351,42.317 212.626,32.5848 212.695,32.0479"/>
</g>
<clipPath id="cp00576432">
  <polygon points="0,432 576,432 576,0 0,0"/>
</clipPath>
<g clip-path="url(#cp00576432)">
<polygon fill="#ffffff" points="448.606,83.4815 518.538,83.4815 448.606,35.1418"/>
<polygon fill="#ffffff" points="518.538,83.4815 518.538,35.1418 448.606,35.1418"/>
<polyline fill="none" stroke="#262626" stroke-width="0.5" stroke-dasharray="16,0" points="448.606,83.4815 518.538,83.4815"/>
<polyline fill="none" stroke="#262626" stroke-width="0.5" stroke-dasharray="16,0" points="448.606,35.1418 518.538,35.1418"/>
<polyline fill="none" stroke="#262626" stroke-width="0.5" stroke-dasharray="16,0" points="448.606,83.4815 448.606,35.1418"/>
<polyline fill="none" stroke="#262626" stroke-width="0.5" stroke-dasharray="16,0" points="518.538,83.4815 518.538,35.1418"/>
<text fill="#000000" x="474.654" y="43.1984" font-size="10" text-anchor="start" baseline-shift="-5" font-family="Helvetica">400 °C</text>
<text fill="#000000" x="474.654" y="59.3116" font-size="10" text-anchor="start" baseline-shift="-5" font-family="Helvetica">800 °C</text>
<text fill="#000000" x="474.654" y="75.4249" font-size="10" text-anchor="start" baseline-shift="-5" font-family="Helvetica">1200 °C</text>
<polyline fill="none" stroke="#0000ff" stroke-width="2" stroke-dasharray="2,2,2,2,2,2,2,2,2,2" points="451.348,43.1984 471.912,43.1984"/>
<polyline fill="none" stroke="#ff00ff" stroke-width="2" stroke-dasharray="8,8,8,8" points="451.348,59.3116 471.912,59.3116"/>
<polyline fill="none" stroke="#ff0000" stroke-width="2" points="451.348,75.4249 471.912,75.4249"/>
</g>
</g>
</svg>
